<svg xmlns="http://www.w3.org/2000/svg" width="48" height="48" viewBox="0 0 48 48">
  <defs>
    <style>
      .cls-1 {
        fill: #f63c3c;
        fill-rule: evenodd;
      }
    </style>
  </defs>
  <path id="browser" class="cls-1" d="M779.5,3483h39a4.5,4.5,0,0,1,4.5,4.5v39a4.5,4.5,0,0,1-4.5,4.5h-39a4.5,4.5,0,0,1-4.5-4.5v-39A4.5,4.5,0,0,1,779.5,3483Zm1.5,3h36a3,3,0,0,1,3,3v36a3,3,0,0,1-3,3H781a3,3,0,0,1-3-3v-36A3,3,0,0,1,781,3486Zm-3,9h43.5v3H778v-3Zm4.5-6a1.5,1.5,0,1,1-1.5,1.5A1.5,1.5,0,0,1,782.5,3489Zm6,0a1.5,1.5,0,1,1-1.5,1.5A1.5,1.5,0,0,1,788.5,3489Zm6,0a1.5,1.5,0,1,1-1.5,1.5A1.5,1.5,0,0,1,794.5,3489Z" transform="translate(-775 -3483)"/>
</svg>
