<svg xmlns="http://www.w3.org/2000/svg" width="45" height="48" viewBox="0 0 45 48">
  <defs>
    <style>
      .cls-1 {
        fill: #f63c3c;
        fill-rule: evenodd;
      }
    </style>
  </defs>
  <path id="copy" class="cls-1" d="M380,3491h27a4.5,4.5,0,0,1,4.5,4.5v30a4.5,4.5,0,0,1-4.5,4.5H380a4.5,4.5,0,0,1-4.5-4.5v-30A4.5,4.5,0,0,1,380,3491Zm1.5,3h24a3,3,0,0,1,3,3v27a3,3,0,0,1-3,3h-24a3,3,0,0,1-3-3v-27A3,3,0,0,1,381.5,3494Zm34.5-12H389a4.5,4.5,0,0,0-4.5,4.5v1.5h3a3,3,0,0,1,3-3h24a3,3,0,0,1,3,3v27a3,3,0,0,1-3,3v3H416a4.5,4.5,0,0,0,4.5-4.5v-30A4.5,4.5,0,0,0,416,3482Zm0,0H389a4.5,4.5,0,0,0-4.5,4.5v1.5h3a3,3,0,0,1,3-3h24a3,3,0,0,1,3,3v27a3,3,0,0,1-3,3v3H416a4.5,4.5,0,0,0,4.5-4.5v-30A4.5,4.5,0,0,0,416,3482Z" transform="translate(-375.5 -3482)"/>
</svg>
