<svg xmlns="http://www.w3.org/2000/svg" width="48" height="47.6" viewBox="0 0 48 47.6">
  <defs>
    <style>
      .cls-1 {
        fill: #30282a;
        fill-rule: evenodd;
      }
    </style>
  </defs>
  <path id="open_letter" data-name="open letter" class="cls-1" d="M1364.5,3052.64h-12v1.49h12v-1.49Zm4.5,2.98h-16.5v1.49H1369v-1.49Zm13.46,0.69a0.176,0.176,0,0,1,.04-0.05l-6-4.95v-6.13h-7.43l-5.92-4.88a4.985,4.985,0,0,0-6.12.06l-5.9,4.82H1345v5.02l-7.42,6.07c-0.96.61-1.58,1.75-1.58,3.82v22.36a4.488,4.488,0,0,0,4.5,4.47h39a4.488,4.488,0,0,0,4.5-4.47v-22.36C1384,3058.05,1383.4,3056.93,1382.46,3056.31Zm-5.96-1.05,2.87,2.39-1.11.95H1378c0.08,0,.16.02,0.24,0.02l-1.74,1.5v-4.86Zm-17.54-12.68a1.8,1.8,0,0,1,1.15-.41,1.918,1.918,0,0,1,1.14.37l3.18,2.64h-8.63Zm-10.96,5.59h25.5v14.53l-12.25,10.55a1.912,1.912,0,0,1-1.14.36,1.848,1.848,0,0,1-1.15-.4l-10.96-9.92v-15.12Zm-3,5.92v6.48l-3.75-3.39Zm-5.86,27.73a3.106,3.106,0,0,1-.14-0.87v-19.37a2.957,2.957,0,0,1,.67-1.86l12.1,10.95Zm38.86,2.12h-36a3.2,3.2,0,0,1-.63-0.07l12.65-11.16-0.03-.03,3.04,2.75a4.957,4.957,0,0,0,6.12.07l3.03-2.62,12.45,10.99A3.285,3.285,0,0,1,1378,3083.94Zm3-2.99a3.106,3.106,0,0,1-.14.87l-12.37-10.92,12.24-10.54a2.907,2.907,0,0,1,.27,1.22v19.37Zm-13.5-22.35h-15v1.49h15v-1.49Z" transform="translate(-1336 -3039.31)"/>
</svg>
