<svg xmlns="http://www.w3.org/2000/svg" width="48" height="42.03" viewBox="0 0 48 42.03">
  <defs>
    <style>
      .cls-1 {
        fill: #f63c3c;
        fill-rule: evenodd;
      }
    </style>
  </defs>
  <path id="heart" class="cls-1" d="M818.788,3785.18c-7.105-7.1-14.147-4-19.788,1.07-5.64-5.07-12.626-8.23-19.787-1.07a14.129,14.129,0,0,0,0,20.1c19.727,17.74,19.722,17.71,19.722,17.71s0.028,0.06,19.853-17.71A14.129,14.129,0,0,0,818.788,3785.18Zm-19.837,34.02c-2.262-2-7.156-7.03-17.733-16.42a10.746,10.746,0,0,1-3.2-7.66,10.969,10.969,0,0,1,3.319-7.88c2.224-2.19,4.411-3.26,6.685-3.26,2.645,0,5.665,1.49,8.976,4.43l2,1.77,2-1.77c3.293-2.92,6.318-4.4,8.989-4.4,2.282,0,4.464,1.06,6.673,3.23a10.975,10.975,0,0,1,3.32,7.88,10.828,10.828,0,0,1-3.308,7.76C806.093,3812.23,801.205,3817.23,798.951,3819.2Z" transform="translate(-775 -3781)"/>
</svg>
