<svg xmlns="http://www.w3.org/2000/svg" width="48" height="48" viewBox="0 0 48 48">
  <defs>
    <style>
      .cls-1 {
        fill: #f63c3c;
        fill-rule: evenodd;
      }
    </style>
  </defs>
  <path id="iMac" class="cls-1" d="M379.5,3774h39a4.5,4.5,0,0,1,4.5,4.5v30a4.5,4.5,0,0,1-4.5,4.5h-39a4.5,4.5,0,0,1-4.5-4.5v-30A4.5,4.5,0,0,1,379.5,3774Zm1.5,3h36a3,3,0,0,1,3,3v27a3,3,0,0,1-3,3H381a3,3,0,0,1-3-3v-27A3,3,0,0,1,381,3777Zm-3,25.5h42v3H378v-3Zm12,16.5h18a1.5,1.5,0,0,1,0,3H390A1.5,1.5,0,0,1,390,3819Zm1.5-6h15v6h-15v-6Zm3,0h9v6h-9v-6Z" transform="translate(-375 -3774)"/>
</svg>
