<svg xmlns="http://www.w3.org/2000/svg" width="33" height="48" viewBox="0 0 33 48">
  <defs>
    <style>
      .cls-1 {
        fill: #30282a;
        fill-rule: evenodd;
      }
    </style>
  </defs>
  <path id="iPhone" class="cls-1" d="M948,3040h24a4.5,4.5,0,0,1,4.5,4.5v39a4.5,4.5,0,0,1-4.5,4.5H948a4.5,4.5,0,0,1-4.5-4.5v-39A4.5,4.5,0,0,1,948,3040Zm1.5,3h21a3,3,0,0,1,3,3v36a3,3,0,0,1-3,3h-21a3,3,0,0,1-3-3v-36A3,3,0,0,1,949.5,3043Zm10.5,33a3,3,0,1,1-3,3A3,3,0,0,1,960,3076Zm-3-30h6a1.5,1.5,0,0,1,0,3h-6A1.5,1.5,0,0,1,957,3046Z" transform="translate(-943.5 -3040)"/>
</svg>
