<svg xmlns="http://www.w3.org/2000/svg" width="48" height="48" viewBox="0 0 48 48">
  <defs>
    <style>
      .cls-1 {
        fill: #f63c3c;
        fill-rule: evenodd;
      }
    </style>
  </defs>
  <path id="lifesaver" class="cls-1" d="M1199,3482a24,24,0,1,0,24,24A24.006,24.006,0,0,0,1199,3482Zm17.34,12.17-6.53,3.77a13.275,13.275,0,0,0-2.75-2.75l3.77-6.53A20.925,20.925,0,0,1,1216.34,3494.17ZM1209.5,3506a10.5,10.5,0,1,1-10.5-10.5A10.5,10.5,0,0,1,1209.5,3506Zm-10.5-21a20.858,20.858,0,0,1,9.23,2.16l-3.75,6.51a13.4,13.4,0,0,0-5.48-1.17,13.57,13.57,0,0,0-4.44.76l-3.78-6.54A20.674,20.674,0,0,1,1199,3485Zm-10.84,3.06,3.73,6.48a13.321,13.321,0,0,0-3.1,2.65l-6.56-3.79A21.172,21.172,0,0,1,1188.16,3488.06ZM1178,3506a20.852,20.852,0,0,1,2.61-10.13l6.49,3.75a13.516,13.516,0,0,0-.5,11.72l-6.52,3.76A20.856,20.856,0,0,1,1178,3506Zm3.57,11.7,6.53-3.76a13.847,13.847,0,0,0,2.96,2.96l-3.77,6.53A21.075,21.075,0,0,1,1181.57,3517.7ZM1199,3527a20.96,20.96,0,0,1-9.09-2.09l3.75-6.51a13.516,13.516,0,0,0,11.72-.5l3.75,6.48A20.888,20.888,0,0,1,1199,3527Zm12.6-4.22-3.79-6.57a13.168,13.168,0,0,0,2.65-3.11l6.49,3.75A21.192,21.192,0,0,1,1211.6,3522.78Zm0.14-12.34a13.57,13.57,0,0,0,.76-4.44,13.4,13.4,0,0,0-1.17-5.48l6.52-3.76a20.985,20.985,0,0,1,.47,17.48Z" transform="translate(-1175 -3482)"/>
</svg>
