<svg id="Logo" xmlns="http://www.w3.org/2000/svg" width="130.25" height="86.72" viewBox="0 0 130.25 86.72">
  <defs>
    <style>
      .cls-1 {
        fill: #fff;
        fill-rule: evenodd;
      }
    </style>
  </defs>
  <path id="University" class="cls-1" d="M803.751,5879.09a5.131,5.131,0,0,0,1.922-1.22,5.007,5.007,0,0,0,1.123-1.89,7.629,7.629,0,0,0,.368-2.42v-9.31h-3.37v9.03a3.536,3.536,0,0,1-.767,2.57,2.735,2.735,0,0,1-2,.75,3.305,3.305,0,0,1-1.112-.17,2.1,2.1,0,0,1-.864-0.57,2.846,2.846,0,0,1-.562-1.04,5.043,5.043,0,0,1-.205-1.54v-9.03h-3.369v9.31a7.726,7.726,0,0,0,.356,2.41,4.884,4.884,0,0,0,1.1,1.87,5.082,5.082,0,0,0,1.889,1.24,7.663,7.663,0,0,0,2.722.44A8.159,8.159,0,0,0,803.751,5879.09Zm19.771,0.13v-14.97h-3.348v8.83q-0.777-1.17-1.663-2.43c-0.591-.84-1.185-1.65-1.782-2.44s-1.185-1.52-1.76-2.21-1.1-1.28-1.577-1.75h-2.743v14.97h3.326v-9.81a51.2,51.2,0,0,1,3.585,4.73q1.686,2.505,3.132,5.08h2.83Zm3.543,0h3.369v-14.97h-3.369v14.97Zm15.1,0c0.593-1.26,1.178-2.56,1.754-3.91s1.122-2.69,1.641-4.02,1-2.59,1.432-3.8,0.822-2.29,1.157-3.24h-3.587c-0.281.87-.594,1.8-0.937,2.8s-0.691,2-1.047,2.99-0.7,1.94-1.034,2.85-0.641,1.7-.922,2.35c-0.3-.66-0.611-1.44-0.937-2.35s-0.667-1.86-1.023-2.86-0.705-1.98-1.048-2.98-0.654-1.94-.934-2.8h-3.715q0.475,1.425,1.133,3.24c0.437,1.21.917,2.48,1.438,3.8s1.072,2.66,1.652,4.01,1.167,2.66,1.763,3.92h3.214Zm18.433,0v-2.83h-7.236v-3.61h5.983v-2.76h-5.983v-2.94h6.739v-2.83H850v14.97H860.6Zm5.389-15.06a20.481,20.481,0,0,0-2.278.3v14.76h3.369v-5.47h1.663c0.289,0.35.579,0.73,0.868,1.16s0.582,0.87.878,1.35,0.585,0.96.867,1.47,0.56,1,.835,1.49h3.767q-0.389-.825-0.843-1.68c-0.3-.57-0.615-1.11-0.939-1.64s-0.652-1.03-.983-1.51-0.648-.91-0.95-1.29a4.769,4.769,0,0,0,2.084-1.54,4.227,4.227,0,0,0,.723-2.56,4.168,4.168,0,0,0-1.792-3.73,9.278,9.278,0,0,0-5.163-1.19C867.478,5864.08,866.776,5864.1,865.991,5864.16Zm4.752,3.25a1.649,1.649,0,0,1,.832,1.57,1.725,1.725,0,0,1-.821,1.62,5.711,5.711,0,0,1-2.721.47h-0.951v-4.06c0.173-.01.357-0.03,0.551-0.04s0.414-.02.659-0.02A5.14,5.14,0,0,1,870.743,5867.41Zm9.26,8.94a8.5,8.5,0,0,1-1.653-.65l-0.95,2.67a6.981,6.981,0,0,0,.745.37,8.8,8.8,0,0,0,1.058.37,12.872,12.872,0,0,0,1.415.29,12.146,12.146,0,0,0,1.793.12,7.091,7.091,0,0,0,4.428-1.16,3.894,3.894,0,0,0,1.469-3.25,5.247,5.247,0,0,0-.281-1.83,3.491,3.491,0,0,0-.853-1.32,5.28,5.28,0,0,0-1.437-.98c-0.576-.28-1.252-0.57-2.03-0.86-0.375-.13-0.717-0.25-1.026-0.38a4.138,4.138,0,0,1-.821-0.41,1.971,1.971,0,0,1-.551-0.5,1.2,1.2,0,0,1-.194-0.69,1.123,1.123,0,0,1,.529-1.03,3.413,3.413,0,0,1,1.739-.34,6.212,6.212,0,0,1,1.847.25,9.271,9.271,0,0,1,1.393.58l0.972-2.66a8.922,8.922,0,0,0-1.815-.71,9.157,9.157,0,0,0-2.613-.33,7.712,7.712,0,0,0-2.29.32,4.869,4.869,0,0,0-1.728.89,3.967,3.967,0,0,0-1.1,1.42,4.328,4.328,0,0,0-.389,1.87,3.878,3.878,0,0,0,.367,1.76,4.075,4.075,0,0,0,.951,1.23,5.538,5.538,0,0,0,1.317.84c0.49,0.22.979,0.42,1.469,0.59a10.268,10.268,0,0,1,2.376,1.05,1.44,1.44,0,0,1,.691,1.22,1.765,1.765,0,0,1-.108.63,1.074,1.074,0,0,1-.389.48,2.12,2.12,0,0,1-.745.33,4.815,4.815,0,0,1-1.177.12A8.337,8.337,0,0,1,880,5876.35Zm11.142,2.87h3.369v-14.97h-3.369v14.97Zm6.12-14.97v2.87h4.514v12.1h3.369v-12.1h4.515v-2.87h-12.4Zm19.24,3.08c-0.533-1.02-1.029-2.05-1.489-3.08h-3.91q1.232,2.415,2.56,4.71,1.329,2.28,2.8,4.58v5.68h3.37v-5.73q1.469-2.28,2.786-4.55t2.549-4.69h-3.715c-0.462,1.03-.966,2.06-1.514,3.08s-1.125,2.04-1.73,3.06Q917.3,5868.86,916.505,5867.33Z" transform="translate(-794.906 -5792.81)"/>
  <path id="Logo-2" data-name="Logo" class="cls-1" d="M853.418,5825.3c0,8.48,5.994,14.31,15.12,14.31,9.017,0,15.011-5.83,15.011-14.31v-17.5a1.077,1.077,0,0,1,1.188-1.18h2.322v-6h-6.912c-2.592,0-3.672,1.14-3.672,3.67v20.74c0,5.07-3.186,7.99-7.991,7.99s-7.992-2.92-7.992-7.94v-20.79c0-2.53-1.08-3.67-3.672-3.67h-6.912v6h2.322a1.077,1.077,0,0,1,1.188,1.18v17.5Zm-20.354-32.48h54v54h-54v-54Z" transform="translate(-794.906 -5792.81)"/>
</svg>
