<svg id="Logo" xmlns="http://www.w3.org/2000/svg" width="123.813" height="57.91" viewBox="0 0 123.813 57.91">
  <defs>
    <style>
      .cls-1, .cls-2 {
        fill: #fff;
        fill-rule: evenodd;
      }

      .cls-2 {
        fill-opacity: 0;
        stroke: #fff;
        stroke-linejoin: round;
        stroke-width: 5px;
      }
    </style>
  </defs>
  <path id="Connecto_Logo" data-name="Connecto Logo" class="cls-1" d="M411.311,5849.31a6.874,6.874,0,0,0-5.553-2.51,7.97,7.97,0,0,0-8.374,8.39c0,4.95,3.493,8.27,8.374,8.27a7.014,7.014,0,0,0,5.911-2.82l-2.329-1.66a4.456,4.456,0,0,1-3.56,1.92c-3.269,0-5.44-2.5-5.44-5.88a5.379,5.379,0,0,1,5.44-5.67,4.328,4.328,0,0,1,3.336,1.57Zm1.633,5.88c0,4.95,3.493,8.27,8.374,8.27,4.948-.09,8.441-3.41,8.441-8.35,0-5.09-3.493-8.4-8.441-8.31A7.97,7.97,0,0,0,412.944,5855.19Zm2.955-.17a5.456,5.456,0,1,1,10.9,0c0,3.38-2.172,5.88-5.463,5.88C418.071,5860.9,415.9,5858.4,415.9,5855.02Zm16.768,8.03h2.822V5850.9h0.045l7.836,12.15h3.582V5847.2h-2.821v11.78h-0.045l-7.679-11.78h-3.74v15.85Zm11.515,0H447V5850.9h0.045l7.837,12.15h3.582V5847.2h-2.821v11.78H455.6l-7.68-11.78h-3.739v15.85Zm17.578,0h13.7l-0.933-2.55h-9.948v-4.3h7.276v-2.55h-7.276v-3.9h9.545l0.933-2.55h-13.3v15.85Zm27.912-13.74a6.872,6.872,0,0,0-5.553-2.51,7.97,7.97,0,0,0-8.374,8.39c0,4.95,3.493,8.27,8.374,8.27a7.013,7.013,0,0,0,5.911-2.82l-2.328-1.66a4.459,4.459,0,0,1-3.56,1.92c-3.269,0-5.441-2.5-5.441-5.88a5.38,5.38,0,0,1,5.441-5.67,4.33,4.33,0,0,1,3.336,1.57Zm6.63,13.74h2.822v-13.3h4.858v-2.55H491.444v2.55H496.3v13.3Zm8.077-7.86c0,4.95,3.493,8.27,8.374,8.27,4.948-.09,8.441-3.41,8.441-8.35,0-5.09-3.493-8.4-8.441-8.31A7.97,7.97,0,0,0,504.379,5855.19Zm2.956-.17a5.456,5.456,0,1,1,10.9,0c0,3.38-2.172,5.88-5.463,5.88C509.507,5860.9,507.335,5858.4,507.335,5855.02Z" transform="translate(-397.375 -5805.56)"/>
  <path id="bg" class="cls-2" d="M448.228,5808.08h21.6v21.6h-21.6v-21.6Z" transform="translate(-397.375 -5805.56)"/>
</svg>
