<svg xmlns="http://www.w3.org/2000/svg" width="370.4" height="681.56" viewBox="0 0 370.4 681.56">
  <defs>
    <style>
      .cls-1 {
        fill: #30282a;
        fill-rule: evenodd;
      }
    </style>
  </defs>
  <path id="SA_GE" data-name="SA GE" class="cls-1" d="M1258.65,2419.9q-2.415,2.415-10.29,2.41h-18.39q-7.875,0-10.51-2.41c-1.75-1.6-2.63-5.04-2.63-10.29v-34.15h-39.84v40.28q0,38.535,40.72,38.53h42.47q41.16,0,41.16-38.53v-78.81q0-38.535-40.28-38.54h-31.97q-7.875,0-10.5-2.4c-1.76-1.6-2.63-5.04-2.63-10.29v-60.87q0-7.875,2.63-10.29,2.625-2.4,10.5-2.4h18.39q7.89,0,10.51,2.4t2.63,10.29v34.16h39.84V2218.7q0-38.52-40.72-38.53h-42.91q-40.71,0-40.72,38.53v72.25q0,38.97,39.85,38.97h32.4q7.875,0,10.29,2.41c1.6,1.61,2.41,5.03,2.41,10.29v66.99C1261.06,2414.86,1260.25,2418.3,1258.65,2419.9Zm206.45-205.57,24.96,144.49h-47.73Zm81,239.94-52.1-274.1h-57.36l-48.6,274.1h39.4l10.07-63.49h57.8l10.95,63.49h39.84Zm-242.13,92.83q0-38.535-40.72-38.53H1216.4q-40.725,0-40.72,38.53v197.03q0,38.985,40.72,38.97h46.85q40.71,0,40.72-38.97V2641.67h-61.74v30.65h21.89v67q0,7.875-2.62,10.28-2.64,2.415-10.51,2.41h-22.33q-7.89,0-10.51-2.41t-2.63-10.28V2552.35q0-7.875,2.63-10.29t10.51-2.41h22.33q7.875,0,10.51,2.41t2.62,10.29v36.34h39.85V2547.1Zm145.8,109.9h63.06v-31.97h-63.06v-84.5h76.19v-31.96H1409.93v274.09h119.1V2750.7h-79.26V2657Zm-271.69,169.73h350.29v35.03H1178.08v-35.03Z" transform="translate(-1175.69 -2180.19)"/>
</svg>
