<svg id="Logo" xmlns="http://www.w3.org/2000/svg" width="71" height="73.81" viewBox="0 0 71 73.81">
  <defs>
    <style>
      .cls-1, .cls-2 {
        fill: #fff;
        fill-rule: evenodd;
      }

      .cls-2 {
        opacity: 0.5;
      }
    </style>
  </defs>
  <path id="Direct" class="cls-1" d="M1074.6,5820.2q-5.58-3.2-18.42-3.19h-21.5v50.54h21.57q13.32,0,18.62-3.04t5.29-11.6v-20.56Q1080.16,5823.4,1074.6,5820.2Zm-9.23,37.65c-1.77.7-4.99,1.06-9.66,1.06h-8.88v-33.26h9.27c4,0,6.98.47,8.96,1.4a5.116,5.116,0,0,1,2.96,5.06v20.8C1068.02,5855.51,1067.13,5857.15,1065.37,5857.85Z" transform="translate(-1034.69 -5793.75)"/>
  <path id="o" class="cls-2" d="M1093.7,5793.75a12,12,0,1,1-12,12A12,12,0,0,1,1093.7,5793.75Zm0,5a7,7,0,1,1-7,7A6.995,6.995,0,0,1,1093.7,5798.75Z" transform="translate(-1034.69 -5793.75)"/>
</svg>
