<svg xmlns="http://www.w3.org/2000/svg" width="47" height="86.47" viewBox="0 0 47 86.47">
  <defs>
    <style>
      .cls-1 {
        fill: #fff;
        fill-rule: evenodd;
      }
    </style>
  </defs>
  <path id="SA_GE" data-name="SA GE" class="cls-1" d="M1247.53,5825.52a1.963,1.963,0,0,1-1.31.3h-2.33a2.068,2.068,0,0,1-1.33-.3,1.839,1.839,0,0,1-.34-1.31v-4.33h-5.05v5.11q0,4.89,5.17,4.89h5.38c3.48,0,5.23-1.63,5.23-4.89v-10c0-3.26-1.71-4.89-5.11-4.89h-4.06a2.068,2.068,0,0,1-1.33-.3,1.775,1.775,0,0,1-.34-1.31v-7.72a1.763,1.763,0,0,1,.34-1.3,2,2,0,0,1,1.33-.31h2.33a2.048,2.048,0,0,1,1.34.31,1.816,1.816,0,0,1,.33,1.3v4.33h5.05v-5.11q0-4.875-5.16-4.88h-5.45q-5.16,0-5.16,4.88v9.17c0,3.3,1.68,4.94,5.05,4.94h4.11a1.279,1.279,0,0,1,1.62,1.61v8.5A1.971,1.971,0,0,1,1247.53,5825.52Zm26.19-26.08,3.17,18.33h-6.06Zm10.28,30.44-6.61-34.77h-7.28l-6.17,34.77h5l1.28-8.06h7.33l1.39,8.06H1284Zm-30.72,11.77q0-4.875-5.17-4.88h-5.94c-3.44,0-5.17,1.63-5.17,4.88v25c0,3.3,1.73,4.94,5.17,4.94h5.94c3.45,0,5.17-1.64,5.17-4.94v-13h-7.83v3.89h2.77v8.5a1.8,1.8,0,0,1-.33,1.3,2.015,2.015,0,0,1-1.33.31h-2.84a2.015,2.015,0,0,1-1.33-.31,1.8,1.8,0,0,1-.33-1.3v-23.72a1.8,1.8,0,0,1,.33-1.3,2.015,2.015,0,0,1,1.33-.31h2.84a2.015,2.015,0,0,1,1.33.31,1.8,1.8,0,0,1,.33,1.3v4.61h5.06v-5.28Zm18.5,13.95h7.99v-4.06h-7.99v-10.72h9.66v-4.05h-14.72v34.77h15.11v-4.06h-10.05V5855.6Zm-34.47,21.53h44.44v4.44h-44.44v-4.44Z" transform="translate(-1237 -5795.09)"/>
</svg>
