<svg xmlns="http://www.w3.org/2000/svg" width="48" height="48" viewBox="0 0 48 48">
  <defs>
    <style>
      .cls-1 {
        fill: #f63c3c;
        fill-rule: evenodd;
      }
    </style>
  </defs>
  <path id="pic" class="cls-1" d="M1190,3794a6,6,0,1,0-6-6A6,6,0,0,0,1190,3794Zm0-8.98a2.98,2.98,0,1,1-2.98,2.98A2.987,2.987,0,0,1,1190,3785.02Zm28.5-12.02h-39a4.494,4.494,0,0,0-4.5,4.5v39a4.494,4.494,0,0,0,4.5,4.5h39a4.494,4.494,0,0,0,4.5-4.5v-39A4.494,4.494,0,0,0,1218.5,3773Zm1.5,42a3,3,0,0,1-3,3h-36a3,3,0,0,1-3-3v-36a3,3,0,0,1,3-3h36a3,3,0,0,1,3,3v36Zm-24.43-6.43a1.424,1.424,0,0,0,0-2.02l-4.18-4.19a1.612,1.612,0,0,0-.32-0.48,1.444,1.444,0,0,0-1.61-.28,1.35,1.35,0,0,0-.53.33,2.141,2.141,0,0,0-.13.19l-7.42,7.42a1.439,1.439,0,1,0,2.04,2.03l6.56-6.56,3.56,3.56A1.436,1.436,0,0,0,1195.57,3808.57Zm15.32-9.21a1.5,1.5,0,0,0-.32-0.48,1.444,1.444,0,0,0-1.61-.28,1.476,1.476,0,0,0-.53.33,2.141,2.141,0,0,0-.13.19l-13.42,13.42a1.439,1.439,0,1,0,2.04,2.03l12.56-12.56,5.06,5.06a1.435,1.435,0,1,0,2.03-2.03Z" transform="translate(-1175 -3773)"/>
</svg>
