<svg xmlns="http://www.w3.org/2000/svg" width="48" height="48" viewBox="0 0 48 48">
  <defs>
    <style>
      .cls-1 {
        fill: #30282a;
        fill-rule: evenodd;
      }
    </style>
  </defs>
  <path id="archive2" class="cls-1" d="M545,3040h28.5c1.657,0,2.779,1.86,3,3l7.5,25.51v14.99a4.5,4.5,0,0,1-4.5,4.5h-39a4.5,4.5,0,0,1-4.5-4.5v-14.99l6-25.51C542.28,3041.9,543.343,3040,545,3040Zm1.5,3H572a1.5,1.5,0,0,1,1.5,1.5l7.5,24.02V3082a3,3,0,0,1-3,3H542a3,3,0,0,1-3-3v-13.47l6-24.03A1.5,1.5,0,0,1,546.5,3043Zm-9,24h45v3h-45v-3Zm12,0h21v3h-21v-3Zm21,0v7.5a3,3,0,0,1-3,3h-15a3,3,0,0,1-3-3V3067h21Zm-19.5,0h18a1.406,1.406,0,0,0-1.5,1.5v4.5a1.5,1.5,0,0,1-1.5,1.5H554a1.5,1.5,0,0,1-1.5-1.5v-4.5A1.469,1.469,0,0,0,551,3067Zm-3-7.5h24a1.5,1.5,0,0,1,0,3H548A1.5,1.5,0,0,1,548,3059.5Zm1.5-6h21a1.5,1.5,0,0,1,0,3h-21A1.5,1.5,0,0,1,549.5,3053.5Zm1.5-6h18a1.5,1.5,0,0,1,0,3H551A1.5,1.5,0,0,1,551,3047.5Z" transform="translate(-536 -3040)"/>
</svg>
